<?xml version="1.0" standalone="no"?>
<!DOCTYPE svg PUBLIC "-//W3C//DTD SVG 20010904//EN"
 "http://www.w3.org/TR/2001/REC-SVG-20010904/DTD/svg10.dtd">
<svg version="1.0" xmlns="http://www.w3.org/2000/svg"
 width="640.000000pt" height="486.000000pt" viewBox="0 0 640.000000 486.000000"
 preserveAspectRatio="xMidYMid meet">
<metadata>
Created by potrace 1.16, written by Peter Selinger 2001-2019
</metadata>
<g transform="translate(0.000000,486.000000) scale(0.100000,-0.100000)"
fill="#000000" stroke="none">
<path d="M1580 4658 c-25 -5 -81 -26 -125 -47 -119 -57 -207 -151 -274 -291
-67 -142 -84 -278 -49 -390 35 -113 72 -210 94 -248 96 -165 306 -334 524
-423 40 -17 65 -33 65 -42 0 -9 4 -19 8 -23 4 -4 7 -14 7 -23 0 -8 12 -26 28
-39 15 -13 21 -21 15 -17 -7 3 -13 2 -13 -4 0 -5 14 -12 30 -16 21 -5 30 -13
30 -26 0 -21 -10 -25 -27 -8 -8 8 -15 5 -24 -8 -8 -11 -21 -22 -30 -25 -9 -4
-36 -36 -60 -72 -48 -71 -54 -75 -174 -101 -84 -19 -187 -63 -179 -77 3 -4 -6
-8 -19 -8 -30 0 -129 -52 -182 -95 -22 -18 -83 -74 -135 -125 -52 -51 -124
-116 -160 -145 -76 -62 -218 -207 -246 -250 -10 -16 -21 -32 -25 -35 -12 -9
-49 -84 -49 -99 0 -8 -3 -11 -7 -8 -3 4 -17 -17 -31 -46 -13 -28 -30 -59 -36
-67 -33 -41 -49 -207 -25 -252 27 -52 72 -98 117 -119 39 -19 63 -23 142 -23
87 -1 190 16 215 34 25 18 83 23 265 26 180 2 212 4 258 18 9 3 48 10 85 15
75 11 176 56 218 99 42 43 80 74 86 69 5 -6 -48 -57 -59 -57 -4 0 -20 -18 -35
-41 l-27 -41 12 -121 c7 -67 23 -168 36 -224 23 -99 23 -105 10 -225 -24 -217
-34 -257 -94 -398 -76 -179 -103 -259 -172 -505 -6 -22 -17 -59 -24 -83 -25
-79 -68 -72 466 -72 l481 0 -20 28 c-11 15 -36 71 -55 124 -36 99 -39 106 -71
167 -20 37 -38 241 -25 276 4 11 5 27 3 35 -3 8 2 5 12 -7 17 -24 35 -30 35
-12 0 5 -4 8 -9 4 -5 -3 -12 -1 -16 5 -3 5 0 10 7 10 9 0 9 3 -2 10 -11 7 -11
10 -2 10 27 0 40 24 34 64 -4 30 -2 37 8 31 14 -8 30 11 29 35 0 10 -3 8 -9
-5 -7 -18 -8 -19 -15 -2 -4 9 -11 17 -17 17 -5 0 -7 -4 -3 -9 3 -5 1 -12 -5
-16 -11 -7 -13 5 -4 29 3 9 12 16 20 16 8 0 14 6 14 14 0 7 10 17 23 21 19 6
19 8 5 12 -10 2 -18 12 -17 21 0 11 2 12 6 5 9 -25 23 -12 29 27 4 22 12 45
20 51 7 6 11 16 8 24 -8 19 37 59 47 43 5 -7 6 6 4 30 -2 23 0 40 4 38 4 -3
13 -1 21 4 11 7 11 11 1 24 -14 16 -45 11 -34 -7 3 -6 1 -7 -5 -3 -18 11 -14
23 9 29 16 4 20 11 15 24 -5 16 -5 16 9 -1 8 -10 12 -23 9 -27 -3 -5 4 -9 15
-9 13 0 19 5 15 14 -6 17 35 58 49 49 6 -3 7 -1 4 5 -4 5 -4 17 -1 26 7 17 57
18 83 1 9 -5 12 -4 7 3 -3 6 -1 16 6 22 47 39 63 58 64 73 2 15 -5 18 -35 15
-20 -2 -36 -8 -36 -15 0 -6 -3 -15 -7 -19 -4 -4 -6 7 -5 24 1 16 5 28 9 26 4
-2 22 3 41 12 27 13 33 20 24 29 -7 7 -16 11 -21 8 -4 -3 -3 -9 3 -13 7 -4 2
-11 -13 -18 -21 -9 -24 -9 -19 3 5 14 -13 21 -40 16 -5 -1 -5 3 -2 9 4 6 9 9
12 6 7 -7 63 26 63 36 0 5 -8 11 -17 15 -10 3 -29 16 -43 29 -22 20 -29 21
-53 11 l-28 -12 22 -13 c19 -12 21 -12 16 2 -6 15 -4 15 18 0 30 -20 32 -28 5
-21 -10 3 -24 -1 -31 -9 -6 -8 -15 -11 -20 -8 -5 3 -9 3 -9 0 0 -3 10 -10 21
-17 13 -7 19 -7 15 -1 -3 6 -2 13 3 16 5 3 11 0 14 -8 6 -15 -19 -31 -42 -27
-7 1 -11 -4 -8 -11 2 -7 9 -12 15 -11 6 1 6 -6 -1 -22 -14 -27 -27 -24 -20 5
4 16 2 19 -13 14 -16 -5 -16 -4 -4 5 8 6 11 11 6 11 -6 0 -5 5 1 11 11 11 11
18 -3 56 -13 34 -11 53 5 54 10 0 11 3 4 5 -9 4 -9 11 -1 29 8 18 8 28 -1 38
-6 8 -9 21 -5 30 3 8 1 18 -5 21 -14 9 -2 38 13 29 6 -3 8 -3 4 2 -4 4 -3 14
3 22 18 21 -11 16 -36 -7 -21 -19 -21 -19 -20 5 1 14 5 28 8 32 13 12 7 44 -8
49 -19 8 -19 43 0 50 8 4 12 10 9 15 -8 13 -24 1 -34 -25 -7 -17 -9 -15 -9 17
-1 20 -5 37 -11 37 -5 0 -7 6 -4 13 3 8 0 26 -5 41 -10 24 -8 28 19 45 17 10
27 21 22 26 -4 5 -2 5 4 2 7 -4 15 0 18 8 6 16 -31 38 -46 28 -5 -2 -8 1 -8 8
0 6 8 9 20 6 26 -7 45 16 26 32 -7 6 -21 9 -30 5 -12 -5 -15 -2 -9 12 4 12 3
15 -5 10 -7 -4 -12 -2 -12 3 0 6 7 11 15 11 8 0 15 5 15 11 0 5 6 7 13 3 10
-6 10 -4 0 7 -7 7 -13 21 -13 30 0 10 -5 21 -12 25 -7 4 -8 3 -4 -4 3 -6 -3
-16 -14 -22 -23 -12 -31 -1 -34 45 0 14 -4 25 -8 25 -5 0 -8 10 -8 23 0 25
-45 71 -60 62 -6 -4 -11 -1 -11 4 -1 6 -2 15 -3 20 -1 11 -46 51 -57 51 -5 0
-5 7 -2 17 4 10 2 14 -5 9 -9 -5 -18 9 -27 44 -3 11 -19 47 -36 86 -11 22 -19
46 -19 52 0 7 -7 15 -15 18 -8 4 -12 10 -9 15 3 5 0 9 -6 9 -6 0 -9 4 -6 9 3
4 -3 19 -14 31 -11 13 -20 29 -20 37 0 7 -4 13 -10 13 -5 0 -10 8 -10 18 0 9
-9 23 -21 30 -12 8 -20 22 -19 35 1 12 1 24 0 27 -1 3 -4 23 -6 44 -1 22 -9
43 -16 47 -7 4 -9 12 -4 16 5 4 11 2 13 -5 3 -6 8 -10 13 -7 5 3 19 -9 31 -27
13 -17 18 -28 11 -24 -16 10 -15 3 5 -44 16 -37 43 -59 29 -24 -3 9 -2 12 5 9
5 -4 7 -15 4 -26 -4 -11 -2 -19 5 -19 7 0 10 -7 6 -15 -3 -8 0 -15 7 -15 7 -1
30 -26 51 -57 21 -31 33 -52 25 -48 -8 5 -6 -1 4 -12 10 -12 20 -29 21 -38 1
-9 11 -26 21 -38 11 -12 20 -26 20 -32 0 -5 8 -9 18 -9 12 1 14 -2 8 -14 -7
-12 1 -25 30 -53 21 -21 39 -42 39 -47 0 -11 30 -26 43 -23 5 1 6 -3 3 -8 -13
-20 6 -38 39 -37 29 1 34 4 29 20 -4 10 0 22 7 27 11 7 10 9 -4 9 -11 0 -15 4
-11 12 4 7 3 8 -5 4 -6 -4 -19 -2 -27 5 -13 10 -17 10 -24 0 -4 -8 -13 -10
-20 -6 -8 5 -2 13 21 23 l34 15 -35 6 c-27 5 -31 8 -15 12 11 3 29 3 40 -1 21
-8 35 -4 35 9 0 4 -18 6 -40 5 -33 -2 -39 1 -30 11 9 10 4 15 -19 20 -30 6
-53 25 -32 25 6 0 11 4 11 10 0 5 -6 7 -14 4 -7 -3 -16 1 -19 9 -4 11 3 14 31
12 21 -1 27 0 15 2 -13 2 -30 17 -39 32 -9 15 -28 35 -43 45 -29 20 -37 55
-20 88 8 15 8 19 0 14 -6 -4 -11 -2 -11 3 0 6 4 11 10 11 5 0 9 10 8 23 -1 35
1 47 11 47 6 0 8 -10 6 -22 -3 -12 1 -25 7 -29 18 -11 31 1 18 16 -8 9 -8 15
0 20 6 4 9 3 8 -2 -2 -4 2 -8 7 -8 6 0 9 3 8 6 -1 3 10 5 25 4 19 -2 21 -1 5
2 -13 2 -23 9 -23 14 0 6 -4 8 -9 4 -5 -3 -12 -1 -16 5 -4 6 -11 8 -16 5 -16
-10 -45 4 -46 22 -1 10 -4 29 -6 43 -3 14 -5 33 -6 43 0 9 -6 17 -12 17 -5 0
-7 -4 -4 -10 3 -5 -3 -10 -13 -10 -11 0 -23 7 -26 16 -5 14 -4 15 9 4 13 -11
14 -10 9 4 -3 9 -10 16 -15 16 -12 0 -11 27 1 35 6 4 22 0 35 -9 13 -9 27 -16
30 -16 12 0 3 37 -15 58 -14 17 -24 21 -36 14 -14 -8 -12 -11 15 -23 17 -8 31
-20 31 -27 0 -8 -8 -6 -22 7 -11 11 -24 18 -28 16 -5 -3 -10 2 -14 10 -3 8
-13 15 -22 15 -14 0 -14 -3 -4 -15 11 -13 10 -14 -4 -9 -9 3 -16 9 -17 13 0 3
-2 14 -4 23 -2 10 1 20 6 24 5 3 9 -2 9 -10 0 -11 9 -16 29 -16 32 0 51 18 32
30 -7 4 -18 18 -25 32 -12 23 -12 24 16 20 25 -4 27 -6 12 -17 -16 -11 -15
-13 2 -26 11 -8 25 -25 32 -39 10 -20 12 -21 9 -4 -2 11 2 29 11 40 13 18 14
17 8 -9 -4 -17 -3 -26 2 -23 6 3 13 -4 17 -17 3 -12 9 -17 11 -10 4 9 15 7 40
-7 19 -11 34 -15 34 -10 0 6 0 13 0 18 0 4 -10 7 -23 7 -12 0 -21 5 -19 13 1
7 -4 15 -12 18 -8 3 -12 13 -9 25 5 17 -5 24 -30 20 -5 -1 -6 3 -3 8 3 5 -7
23 -23 40 l-29 31 51 -6 c29 -4 54 -11 57 -15 3 -4 12 -4 20 1 32 20 49 10 31
-19 -8 -12 -12 -12 -24 -2 -11 8 -17 9 -22 1 -3 -6 -10 -8 -14 -6 -4 3 -8 -1
-8 -10 0 -10 7 -12 20 -8 13 4 17 2 13 -5 -4 -6 -1 -11 6 -11 16 0 40 15 39
24 -3 19 0 26 12 26 8 0 22 9 32 20 16 17 16 20 2 26 -9 3 -20 3 -26 0 -5 -4
-12 -2 -16 4 -6 9 24 15 50 10 6 -1 5 4 -2 11 -7 7 -27 12 -45 11 -23 -1 -28
2 -18 8 12 8 11 10 -5 10 -11 0 -28 9 -38 20 -9 11 -24 20 -33 20 -11 0 -14 5
-10 17 6 14 4 14 -14 -2 -20 -18 -23 -18 -33 -4 -7 9 -29 22 -50 28 -54 18
-41 24 58 31 l20 1 -20 9 c-11 4 -32 6 -47 3 -17 -3 -33 1 -43 11 -9 9 -13 16
-9 16 3 0 1 7 -6 15 -11 13 -5 15 41 14 51 -1 52 -1 22 -10 -18 -5 -33 -14
-33 -19 0 -10 35 -5 75 10 24 9 26 8 20 -10 -7 -22 9 -27 35 -10 12 8 13 11 1
19 -7 5 -9 11 -5 13 5 3 4 4 -2 2 -5 -1 -32 4 -60 11 l-49 14 38 0 c36 1 55
21 20 21 -14 1 -12 4 7 16 l25 15 -29 -6 c-23 -5 -27 -3 -23 10 5 12 1 14 -21
9 -26 -7 -27 -7 -9 13 17 20 17 20 -9 15 -19 -3 -25 -1 -20 7 6 9 0 10 -21 5
-15 -4 -32 -9 -38 -12 -5 -4 -19 -7 -30 -9 -11 -2 -29 -4 -40 -6 -11 -2 -28 1
-37 5 -12 6 -18 5 -18 -4 -1 -9 -5 -7 -14 4 -11 15 -14 13 -25 -18 -7 -18 -9
-39 -5 -45 4 -7 3 -9 -3 -6 -12 8 -26 -20 -17 -34 3 -5 1 -9 -5 -9 -5 0 -12
-14 -16 -31 -4 -17 -15 -46 -25 -63 -27 -44 -70 -179 -70 -215 0 -17 -5 -31
-11 -31 -5 0 -7 -6 -3 -12 5 -7 -6 0 -24 17 -18 16 -28 31 -22 33 6 2 7 9 4
14 -4 6 2 18 12 26 18 13 18 14 -4 7 -40 -12 -49 16 -53 150 -5 180 -1 278 13
286 6 4 11 21 11 38 0 29 10 41 20 24 5 -10 -1 12 -9 31 -3 7 2 20 10 29 9 9
16 20 16 25 0 5 11 21 25 36 13 14 22 26 19 26 -2 0 2 14 11 30 17 34 15 35
-32 18 -27 -10 -38 -10 -54 1 -12 7 -18 8 -15 2 6 -10 -73 -5 -83 5 -2 2 -10
-1 -18 -7 -10 -9 -13 -8 -13 4 0 8 -10 22 -22 30 l-23 16 25 -6 c14 -3 22 -2
18 2 -5 5 -24 8 -44 7 -20 -1 -49 5 -66 14 -16 8 -37 14 -46 12 -12 -2 -6 -10
21 -27 58 -36 86 -71 56 -71 -5 0 -7 5 -4 11 4 6 0 9 -11 7 -11 -2 -22 5 -28
18 -5 11 -22 26 -37 33 -40 18 -151 93 -171 116 -10 11 -17 26 -18 33 0 6 -4
12 -10 12 -5 0 -10 9 -10 21 0 11 -4 18 -9 15 -4 -3 -14 7 -20 22 -9 18 -9 28
-2 30 6 2 10 16 10 30 -1 17 -3 21 -6 10 -2 -10 -11 -18 -19 -18 -18 0 -18 29
0 36 8 3 17 22 21 42 4 20 10 31 12 25 5 -15 40 0 60 26 10 14 11 13 6 -6 -3
-14 -1 -23 6 -23 6 0 11 5 11 11 0 5 4 8 8 5 9 -6 47 53 39 60 -3 3 -1 20 5
37 5 18 11 40 12 49 3 26 137 157 168 163 15 4 30 11 33 16 8 11 -55 10 -115
-3z m-484 -2214 c-4 -16 -2 -24 6 -24 9 0 9 -3 0 -12 -10 -10 -15 -10 -21 1
-7 11 -10 9 -16 -8 -3 -11 -11 -21 -17 -21 -5 0 -8 -7 -4 -15 3 -9 0 -15 -9
-15 -7 0 -22 -11 -32 -23 -10 -13 -26 -23 -35 -21 -11 1 -15 -3 -11 -12 3 -8
0 -14 -6 -14 -6 0 -11 -7 -11 -15 0 -8 -7 -15 -16 -15 -10 0 -14 -6 -10 -15 3
-8 -1 -20 -8 -27 -7 -8 -16 -20 -20 -28 -3 -9 -4 -5 -2 8 5 25 -18 31 -28 6
-10 -25 -7 -46 5 -39 6 4 5 -2 -3 -14 -12 -19 -13 -19 -20 -3 -6 16 -7 16 -7
0 -1 -10 -8 -18 -16 -18 -13 0 -15 17 -6 48 1 1 0 4 -1 5 -2 2 3 12 11 21 11
13 16 14 23 4 7 -9 8 -6 5 10 -7 32 2 59 14 40 6 -9 9 -8 9 7 0 11 9 27 20 35
11 8 20 20 20 27 0 15 33 34 52 30 7 -2 10 -2 6 0 -13 8 -9 23 6 23 8 0 18 9
21 21 4 11 12 18 18 16 7 -2 17 6 22 17 7 13 20 21 34 20 18 -1 22 3 18 17 -3
11 -1 16 5 13 5 -3 7 -17 4 -30z m244 -280 c0 -9 -5 -12 -12 -8 -7 4 -8 3 -4
-4 9 -14 56 -16 56 -2 0 5 9 14 21 20 16 9 26 8 45 -5 36 -23 40 -42 15 -75
-25 -35 -26 -46 -6 -66 13 -14 15 -12 15 16 0 18 4 29 10 25 16 -10 12 -57 -7
-77 -63 -70 -239 85 -194 171 14 25 61 29 61 5z"/>
<path d="M4715 4600 c-3 -5 12 -45 34 -88 58 -115 75 -181 68 -269 -6 -81 -40
-157 -88 -198 -16 -12 -25 -26 -21 -29 10 -11 11 -37 1 -30 -5 3 -7 10 -4 15
3 5 -1 6 -9 3 -23 -9 -7 -34 23 -36 45 -2 49 -3 57 -11 11 -11 34 -9 34 4 0 5
-5 7 -12 3 -7 -4 -8 -3 -4 5 6 9 14 8 34 -5 18 -12 27 -14 30 -5 2 6 10 17 17
25 12 11 10 15 -10 24 -14 6 -32 9 -40 6 -8 -4 -15 -2 -15 4 0 5 -21 8 -47 6
-39 -2 -44 -1 -29 8 28 16 86 27 86 17 0 -5 7 -9 15 -9 9 0 27 -7 40 -16 14
-9 25 -12 25 -6 0 6 9 8 20 5 13 -4 29 3 47 21 14 14 34 26 45 26 19 0 19 8 1
58 -3 6 0 12 6 12 6 0 10 5 9 12 -5 20 30 21 35 1 4 -14 5 -13 6 5 0 12 6 22
11 22 6 0 10 7 10 15 0 8 -4 15 -10 15 -5 0 -10 -7 -10 -15 0 -16 -18 -20 -36
-7 -26 17 5 82 38 82 22 0 38 22 38 52 0 27 -8 33 -38 29 -10 -2 -11 2 -4 15
6 11 5 26 -5 45 -19 38 -37 49 -29 18 6 -20 5 -21 -4 -7 -6 10 -21 24 -33 33
-22 16 -22 16 8 10 l30 -7 -25 21 c-14 12 -33 19 -42 17 -11 -2 -18 2 -18 10
0 7 -6 11 -13 8 -7 -2 -22 4 -32 16 -10 11 -23 20 -29 20 -6 0 -40 14 -74 30
-70 33 -78 35 -87 20z"/>
<path d="M2320 4019 c0 -5 -11 -9 -25 -9 -16 0 -25 -6 -25 -16 0 -13 -2 -13
-14 -1 -16 15 -80 11 -70 -5 3 -5 15 -6 27 -3 17 5 18 4 8 -4 -8 -5 -39 -8
-68 -6 -30 3 -51 1 -48 -4 3 -5 -9 -14 -25 -20 -22 -7 -30 -7 -30 2 0 8 -3 8
-8 2 -4 -6 -20 -18 -35 -28 -15 -10 -25 -22 -22 -27 4 -6 -1 -10 -9 -10 -8 0
-20 -10 -27 -21 -10 -20 -9 -21 10 -16 12 3 19 1 15 -4 -3 -5 -1 -9 5 -9 5 0
15 8 21 18 8 11 10 12 7 2 -2 -8 -13 -20 -24 -25 -30 -15 -54 -37 -48 -43 2
-3 12 1 22 9 15 12 16 12 11 -3 -7 -18 16 -32 35 -21 8 5 8 2 0 -9 -7 -8 -11
-17 -8 -19 2 -3 -12 -6 -33 -7 -20 -2 -42 -9 -48 -17 -6 -8 -15 -11 -19 -7 -5
4 -5 1 -1 -6 5 -9 12 -9 27 -2 11 6 23 9 27 6 5 -3 26 1 48 9 34 12 40 11 48
-2 12 -22 -12 -35 -59 -30 l-40 5 35 -16 35 -16 -27 -4 c-34 -4 -35 -19 -4
-55 19 -22 25 -25 30 -12 3 9 2 13 -3 10 -22 -13 -19 16 3 40 l24 25 -3 -45
c-4 -52 7 -57 32 -15 9 17 21 30 26 30 16 0 137 91 137 103 0 8 3 8 12 -1 8
-8 5 -16 -13 -31 -19 -16 -21 -22 -10 -30 11 -7 11 -9 0 -14 -8 -4 -2 -4 12
-1 18 4 28 1 32 -10 4 -10 1 -13 -9 -9 -7 3 -14 1 -14 -4 0 -5 14 -9 31 -9 24
0 28 2 18 10 -23 18 -22 38 0 31 11 -3 22 -2 25 4 9 13 48 1 43 -14 -3 -6 1
-12 9 -12 8 0 14 5 14 10 0 6 3 8 6 4 3 -3 26 3 51 14 24 10 57 19 71 19 19 0
23 3 13 9 -11 7 -11 9 0 14 10 4 9 6 -3 6 -10 1 -18 -3 -18 -8 0 -9 -108 -46
-115 -39 -12 12 10 48 28 48 27 0 11 17 -23 23 -14 3 -6 5 18 4 23 -2 42 0 42
4 0 11 -30 20 -43 13 -7 -3 -1 4 13 15 l25 21 -27 -9 c-23 -9 -26 -7 -23 7 2
15 -7 17 -67 18 -38 1 -74 6 -81 13 -8 8 -8 11 2 11 7 0 9 5 6 10 -4 6 5 10
19 10 14 0 26 5 26 10 0 6 3 9 8 8 4 0 14 1 22 5 31 11 90 15 96 6 3 -6 26 -8
50 -6 24 2 47 0 52 -5 6 -6 31 -6 58 -2 27 4 41 10 32 12 -10 2 -15 9 -12 17
5 12 -26 28 -58 30 -20 1 -18 15 3 16 13 0 18 3 11 6 -7 3 -20 1 -30 -3 -22
-10 -102 -12 -102 -1 0 4 7 7 16 7 8 0 13 4 10 9 -8 12 -99 6 -104 -7 -5 -15
-22 -16 -22 -2 0 6 15 19 33 30 17 11 28 21 22 22 -35 5 -65 4 -65 -3z"/>
<path d="M3237 3982 c-16 -3 -16 -5 3 -29 11 -14 20 -33 20 -42 1 -15 24 -54
32 -51 1 1 15 -3 30 -9 37 -14 150 -10 166 6 11 11 8 13 -20 14 -18 1 -46 1
-63 1 -33 -2 -56 12 -73 43 -10 19 -8 21 24 17 19 -2 37 -8 40 -13 7 -12 64
-12 64 0 0 5 -6 11 -12 14 -8 3 -1 9 15 16 15 6 27 13 27 16 0 11 -103 0 -107
-12 -3 -7 -10 -10 -17 -6 -15 11 -56 11 -57 1 -1 -4 -2 -12 -3 -17 -3 -21 -16
-23 -16 -3 0 12 -3 21 -7 21 -18 -3 -33 2 -33 10 0 4 11 6 25 3 14 -2 25 0 25
6 0 11 -36 20 -63 14z"/>
<path d="M4575 3960 c-13 -5 -4 -7 28 -5 27 2 47 0 47 -6 0 -6 -9 -7 -21 -4
-15 5 -19 4 -15 -4 9 -14 43 -14 51 -1 4 6 25 0 53 -15 26 -14 53 -25 59 -25
7 0 12 -3 12 -7 -3 -21 2 -33 14 -30 7 1 11 -7 9 -20 -2 -17 2 -23 16 -23 24
0 47 -50 38 -84 -3 -14 -1 -28 5 -32 6 -3 9 -15 6 -25 -3 -10 -2 -17 2 -16 3
1 15 -7 27 -19 16 -16 18 -26 12 -49 -5 -20 -3 -32 5 -37 8 -5 7 -8 -5 -8 -10
0 -23 -9 -30 -20 -7 -11 -16 -20 -21 -20 -4 0 -5 5 -2 10 3 6 -3 10 -13 10
-14 0 -21 -8 -24 -30 -2 -16 0 -32 6 -34 6 -2 -2 -5 -18 -5 -23 -1 -26 2 -17
12 6 8 7 18 3 22 -4 5 -2 5 5 1 7 -4 11 0 10 12 -1 13 -7 18 -19 14 -13 -3
-17 -10 -13 -23 9 -27 -14 -24 -25 4 -7 17 -9 18 -9 5 -1 -12 -9 -18 -23 -17
-17 1 -19 2 -5 6 18 5 24 23 7 23 -5 0 -10 7 -10 16 0 9 -7 14 -17 12 -17 -3
-21 -25 -11 -58 3 -8 3 -12 1 -9 -5 9 -53 -14 -53 -24 0 -5 3 -6 8 -4 4 3 8
-13 9 -36 l1 -40 -23 27 c-25 29 -37 34 -29 11 4 -8 1 -15 -6 -15 -9 0 -11
-10 -6 -30 4 -23 3 -29 -7 -23 -25 16 -38 12 -31 -10 4 -16 3 -19 -5 -12 -6 6
-12 23 -13 38 -2 21 -7 27 -22 25 -10 -2 -21 4 -23 12 -4 12 -3 12 5 1 11 -16
18 -6 20 32 1 15 -2 27 -7 27 -6 0 -12 12 -14 28 -2 15 -3 7 -1 -17 3 -34 1
-42 -10 -38 -11 5 -13 -1 -9 -27 3 -18 0 -42 -6 -54 -9 -16 -7 -21 6 -27 13
-4 14 -8 5 -14 -10 -6 -10 -10 2 -20 8 -7 13 -18 10 -26 -10 -25 17 -26 84 -4
107 35 264 115 295 150 9 9 6 9 -8 -1 -18 -14 -19 -13 -7 1 7 10 21 15 31 12
20 -5 75 52 65 68 -3 5 -1 9 3 9 14 0 33 39 27 55 -4 9 -13 13 -23 10 -14 -4
-16 2 -13 40 3 35 1 45 -11 45 -18 0 -32 31 -18 40 6 3 2 13 -9 23 -11 9 -21
30 -21 47 -3 51 -4 55 -14 66 -5 7 -14 9 -19 6 -5 -3 -7 4 -4 15 8 30 -29 69
-77 81 -22 6 -58 17 -80 26 -44 17 -89 19 -120 6z"/>
<path d="M3147 3853 c-4 -3 -7 -13 -6 -22 0 -12 3 -11 9 4 6 13 9 15 9 5 0 -8
-4 -22 -9 -30 -5 -8 -10 -10 -10 -4 0 7 -7 14 -15 18 -9 3 -15 0 -15 -9 0 -8
12 -18 27 -21 51 -13 68 -51 22 -48 -25 2 -28 0 -18 -12 6 -8 8 -14 4 -14 -4
0 0 -11 8 -24 23 -34 1 -52 -31 -26 -13 11 -18 21 -12 25 6 4 7 13 1 23 -4 9
-6 24 -4 32 4 13 3 13 -6 0 -10 -14 -15 -7 -12 13 1 4 -7 3 -18 -2 -14 -8 -21
-7 -24 2 -4 8 -6 6 -6 -4 -1 -9 -10 -26 -21 -39 -14 -16 -17 -27 -10 -35 5 -6
6 -16 2 -20 -4 -5 -2 -5 4 -2 7 4 18 -1 25 -10 10 -11 10 -14 2 -9 -9 5 -11 2
-7 -9 4 -9 9 -13 12 -10 3 3 14 -3 25 -12 11 -10 17 -12 13 -5 -4 6 -2 12 3
12 6 0 11 -12 10 -27 0 -16 -3 -22 -6 -15 -5 13 -24 17 -22 5 3 -20 -2 -34
-10 -28 -5 3 -12 1 -16 -5 -9 -14 18 -13 33 2 7 7 12 9 12 4 0 -4 -7 -14 -15
-22 -11 -11 -14 -29 -11 -61 3 -25 2 -59 -1 -76 l-6 -29 -13 28 c-8 16 -12 22
-10 14 2 -8 -3 -28 -12 -45 -10 -22 -11 -27 -1 -17 17 16 26 15 26 -3 0 -8 -4
-12 -9 -9 -13 8 3 -49 19 -64 17 -18 17 -28 -1 -13 -11 9 -16 9 -22 0 -5 -8
-3 -9 6 -4 9 6 11 -2 8 -33 -2 -31 0 -42 12 -46 12 -3 12 -4 -2 -5 -14 -1 -16
-10 -12 -52 2 -28 7 -56 11 -63 4 -6 6 -24 5 -41 -2 -29 -2 -29 13 -11 9 12
15 15 15 7 0 -10 3 -11 13 -3 9 8 16 6 25 -8 6 -11 8 -22 3 -25 -5 -3 -12 1
-14 7 -3 8 -6 6 -6 -5 -1 -24 30 -18 46 8 11 19 12 19 18 -8 l7 -27 21 22 c16
18 19 19 14 5 -4 -10 -7 -25 -7 -33 0 -9 -5 -13 -12 -9 -7 4 -6 1 3 -7 23 -19
41 -58 35 -74 -3 -9 -1 -12 4 -9 6 3 10 1 10 -5 0 -6 4 -9 9 -5 6 3 15 -4 21
-15 9 -16 8 -25 -1 -36 -9 -10 -9 -18 -2 -22 5 -4 13 -18 17 -32 7 -29 44 -73
68 -82 20 -8 18 14 -4 39 -21 23 -27 59 -10 56 15 -4 16 9 0 25 -17 17 -31 15
-24 -3 7 -19 -8 -19 -24 -1 -8 10 -8 21 -2 32 6 11 11 13 16 5 10 -16 26 -14
20 2 -3 8 -20 21 -39 30 -19 9 -35 22 -35 28 0 8 4 8 15 -1 13 -10 15 -9 16
11 0 13 3 18 6 12 2 -7 12 -13 20 -13 13 0 13 3 3 15 -10 12 -10 15 0 15 7 0
2 9 -11 21 -13 11 -17 17 -9 13 11 -6 10 -2 -2 13 -25 27 -22 34 8 23 34 -13
34 -13 34 13 1 21 2 20 16 -5 8 -16 17 -28 19 -28 6 0 -15 48 -33 78 -13 19
-12 22 2 22 9 0 19 -6 22 -14 3 -8 12 -17 20 -20 17 -7 9 8 -38 62 -30 36 -44
42 -28 12 7 -14 7 -20 0 -20 -5 0 -10 -7 -10 -15 0 -13 -3 -13 -18 2 -10 10
-23 25 -30 34 -11 14 -10 17 5 15 10 0 21 -5 25 -11 4 -6 8 -2 8 8 0 9 8 17
17 17 14 0 13 3 -5 16 -22 15 -22 35 1 33 9 0 8 -2 -1 -6 -12 -5 -7 -23 7 -23
16 0 7 33 -10 37 -10 3 -20 12 -24 20 -4 13 -3 14 10 3 9 -7 18 -10 22 -7 3 4
14 2 24 -3 12 -7 20 -6 25 2 4 7 3 8 -4 4 -8 -5 -12 0 -12 13 0 13 -7 21 -17
22 -13 0 -14 2 -4 6 8 3 20 -3 28 -13 9 -13 16 -15 24 -7 13 13 59 -6 59 -24
0 -6 9 -15 20 -18 11 -3 20 -11 20 -16 0 -11 -36 5 -63 29 -26 23 -30 9 -6
-22 14 -17 27 -25 38 -22 11 4 10 2 -4 -9 -18 -15 -18 -15 10 -10 21 4 39 -1
60 -15 35 -23 27 -27 -14 -6 -17 9 -32 11 -42 5 -12 -7 -12 -9 1 -10 8 -1 18
-1 22 0 4 0 5 -6 1 -14 -3 -10 -13 -14 -27 -10 -17 5 -18 4 -6 -4 8 -6 11 -11
7 -11 -4 0 4 -12 18 -26 30 -30 48 -25 20 6 -20 22 -13 42 8 21 10 -10 16 -57
18 -146 0 -15 2 -16 8 -6 12 19 44 -43 36 -69 -4 -11 -2 -20 3 -20 5 0 13 -38
18 -84 5 -46 6 -82 2 -80 -14 9 -8 -8 12 -33 23 -29 26 -48 8 -37 -7 4 -3 -4
10 -18 12 -13 22 -32 22 -42 0 -15 3 -16 15 -6 13 11 14 10 10 -2 -6 -15 52
-49 83 -47 14 0 14 2 -3 9 -15 7 -16 9 -4 9 9 1 22 -5 28 -13 9 -11 18 -12 41
-3 17 6 30 17 30 24 0 13 -7 15 -47 16 -12 0 -20 3 -17 8 2 4 12 5 21 2 12 -5
15 -2 10 10 -4 11 -1 17 9 17 9 0 12 5 8 11 -3 6 0 16 7 21 9 6 -15 8 -71 4
-66 -5 -89 -2 -104 9 -18 13 -18 15 -3 15 10 0 20 7 24 16 5 13 7 13 14 2 5
-8 9 -9 9 -2 0 14 -51 50 -65 46 -5 -2 -4 3 3 10 11 11 16 10 26 -4 17 -23 48
-24 39 -1 -5 12 -3 14 8 9 8 -4 3 2 -10 13 -30 27 -24 35 12 16 34 -18 34 -13
0 21 -16 15 -20 22 -10 15 9 -8 17 -11 17 -8 0 4 -17 18 -37 33 -21 14 -31 24
-22 21 9 -3 22 0 29 6 7 7 10 7 7 2 -3 -7 8 -11 29 -11 18 0 28 3 22 7 -7 4 1
9 18 12 l29 4 -31 2 c-17 0 -39 10 -49 21 -10 12 -25 18 -32 15 -8 -3 -11 0
-7 6 3 6 17 9 30 6 12 -2 29 0 36 4 8 6 -2 9 -27 9 -30 0 -36 3 -25 10 12 8
13 12 2 19 -11 6 -10 10 3 15 9 3 26 6 37 6 19 0 19 2 -6 25 -15 14 -33 25
-41 25 -19 0 -28 -17 -13 -24 7 -3 2 -3 -12 1 -23 5 -24 5 -10 -12 14 -17 14
-17 -7 -4 l-22 13 24 16 c18 12 22 19 14 27 -18 18 13 10 45 -11 15 -10 30
-15 34 -12 3 3 0 6 -7 6 -7 0 -9 5 -6 10 5 9 -1 12 -21 9 -4 0 -10 5 -14 11
-4 6 -27 14 -50 17 -37 5 -40 7 -22 14 23 9 79 2 87 -11 2 -4 16 -5 30 -3 13
3 22 10 19 15 -3 5 -12 7 -18 5 -20 -8 -37 8 -30 26 3 9 12 17 20 17 17 0 18
12 2 29 -11 11 -9 11 10 2 13 -7 28 -10 35 -7 7 2 2 8 -10 11 -13 4 -23 12
-23 17 0 5 -5 6 -12 2 -7 -5 -8 -3 -4 5 5 7 15 10 23 7 11 -5 13 -2 9 10 -3 8
-6 18 -6 20 0 2 -12 4 -27 5 -47 1 4 17 57 18 52 1 43 21 -11 26 -21 1 -33 8
-35 19 -1 9 2 14 6 11 5 -3 11 -1 15 5 5 9 -32 16 -59 11 -5 -1 -6 5 -2 14 3
9 6 19 6 21 0 2 7 4 15 4 8 0 15 5 15 10 0 6 -6 10 -12 10 -10 0 -10 2 -1 8 9
6 7 12 -7 25 -25 21 -25 37 0 37 13 0 18 5 14 15 -8 19 -19 19 -37 0 -13 -12
-18 -11 -40 9 -19 18 -26 20 -33 9 -7 -9 -13 -10 -24 -2 -13 9 -12 10 3 5 9
-3 17 -2 17 2 0 10 -120 52 -149 52 -12 0 -38 9 -58 20 -23 12 -31 20 -20 20
10 0 27 -5 37 -10 13 -7 21 -7 25 0 3 5 22 10 41 10 19 0 33 -4 29 -9 -7 -12
8 -21 43 -27 l27 -4 -25 15 c-23 13 -23 14 -5 15 l20 1 -20 9 c-11 5 -36 9
-55 9 -37 1 -80 20 -50 22 8 0 -1 7 -20 14 -19 7 -29 14 -22 14 17 1 15 21 -3
21 -8 0 -15 -5 -15 -10 0 -6 -6 -5 -14 2 -9 8 -11 17 -5 23 15 15 11 38 -6 31
-8 -3 -15 -1 -15 3 0 5 6 11 13 14 6 2 -8 10 -33 17 -25 6 -51 17 -57 22 -12
10 -17 4 -14 -16 1 -5 -6 -6 -16 -2 -15 5 -15 4 2 -10 11 -8 32 -18 48 -21 37
-8 34 -23 -5 -23 -22 0 -29 3 -20 9 10 6 5 11 -19 20 -39 13 -52 14 -44 2 3
-5 0 -13 -6 -17 -7 -4 -9 -3 -5 4 3 6 -2 15 -11 21 -16 9 -16 10 3 11 24 0 48
23 37 34 -4 4 0 4 10 0 10 -3 17 -1 17 5 0 6 -6 11 -14 11 -8 0 -18 5 -22 12
-4 7 -3 8 4 4 17 -10 15 22 -2 40 -20 20 -25 18 -19 -8 l5 -23 -16 22 c-9 12
-16 26 -15 30 5 28 -8 42 -24 26z"/>
<path d="M2822 3193 c-6 -2 -10 -9 -6 -14 3 -5 -16 -9 -43 -9 -32 0 -56 -7
-73 -20 -20 -16 -22 -20 -7 -20 9 0 17 -5 17 -10 0 -6 -12 -8 -27 -4 l-28 6
25 -20 c13 -11 29 -18 34 -15 5 3 6 1 2 -6 -6 -9 -11 -9 -21 -1 -8 7 -15 7
-19 1 -4 -5 4 -17 16 -27 15 -10 17 -14 6 -11 -10 4 -20 2 -23 -3 -4 -6 -1
-10 4 -10 17 0 13 -17 -5 -24 -10 -4 -13 -2 -8 6 5 8 2 9 -10 5 -10 -4 -27 -7
-37 -7 -11 0 -17 -4 -14 -10 4 -6 -11 -11 -37 -12 -65 -2 -68 -2 -70 -13 -2
-6 16 -10 40 -11 52 -1 63 -10 28 -23 -28 -11 -33 -25 -14 -37 7 -5 8 -3 3 6
-6 10 -4 12 9 7 10 -4 26 -2 37 4 15 7 24 7 34 -1 8 -7 19 -9 24 -6 6 4 9 -7
9 -24 -1 -17 -6 -33 -11 -37 -6 -4 -7 -1 -2 7 5 9 4 11 -4 6 -6 -4 -9 -11 -6
-16 8 -13 -29 -22 -53 -13 -20 8 -22 11 -22 34 0 5 -5 7 -11 3 -8 -4 -7 -9 2
-16 10 -6 2 -8 -23 -6 -20 1 -40 -1 -44 -5 -4 -4 12 -7 35 -7 38 0 41 -2 32
-19 -6 -10 -8 -21 -4 -24 3 -4 -6 -11 -21 -16 -29 -12 -37 -36 -8 -28 9 2 24
7 32 9 8 3 12 3 8 1 -13 -7 -9 -23 6 -23 24 0 61 44 58 67 -3 18 0 22 14 16
11 -4 15 -3 11 4 -4 6 0 13 8 16 10 5 13 -1 10 -24 -2 -17 1 -29 8 -29 7 -1 1
-7 -13 -15 -14 -8 -19 -14 -12 -15 6 0 11 -5 10 -12 -2 -7 2 -12 9 -13 6 0 15
-4 20 -9 4 -5 4 -7 -2 -4 -5 3 -17 -1 -25 -10 -13 -14 -12 -15 3 -9 9 3 17 2
17 -3 0 -6 -5 -10 -11 -10 -6 0 -9 -6 -6 -14 9 -22 -5 -27 -20 -8 -13 15 -13
15 -3 -5 6 -13 15 -23 20 -23 13 0 38 27 45 50 4 11 10 18 15 15 5 -3 12 0 16
6 4 8 3 9 -4 5 -18 -11 -14 5 8 39 11 17 20 25 20 18 0 -21 28 -3 57 36 16 20
34 36 42 36 17 0 44 72 38 103 -2 12 -1 22 3 22 4 0 10 7 14 15 5 13 3 13 -18
0 -12 -8 -26 -12 -29 -8 -4 3 -7 -1 -7 -11 0 -9 -4 -15 -9 -12 -5 3 -16 -9
-25 -27 -8 -17 -16 -28 -16 -23 0 5 -10 1 -22 -10 l-23 -19 20 24 c11 13 30
35 42 49 12 13 31 39 42 57 17 30 18 33 3 31 -9 -2 -25 5 -34 15 -16 17 -16
18 2 16 10 -1 16 -5 14 -9 -3 -4 -3 -8 0 -8 3 0 10 10 17 21 8 16 8 20 -1 14
-8 -5 -10 2 -7 23 6 39 -1 46 -26 25 -11 -10 -17 -12 -13 -5 4 7 2 12 -6 12
-10 0 -10 2 1 9 8 5 16 19 18 30 3 21 -1 24 -25 14z"/>
<path d="M4386 3185 c5 -12 2 -16 -12 -13 -11 2 -22 8 -27 13 -10 14 3 -76 15
-99 8 -15 12 -16 18 -5 6 9 10 4 15 -17 3 -16 11 -37 16 -47 6 -10 12 -39 15
-64 2 -25 7 -49 9 -54 3 -4 1 -10 -4 -13 -5 -4 -12 -2 -16 4 -3 5 -15 10 -26
10 -10 0 -19 7 -19 15 0 8 -4 15 -9 15 -5 0 -11 7 -14 14 -4 11 -1 13 10 9 11
-4 14 -3 9 6 -4 6 -3 17 3 24 14 18 7 51 -12 55 -11 2 -14 -2 -10 -17 6 -23
-6 -28 -25 -9 -9 9 -12 9 -12 1 0 -7 5 -15 10 -18 6 -4 7 -11 4 -17 -4 -7 -9
-6 -14 2 -11 18 -29 3 -23 -20 4 -16 9 -18 24 -9 16 8 19 6 18 -13 0 -13 -3
-17 -6 -10 -2 6 -9 12 -14 12 -6 0 -7 -4 -4 -10 3 -6 -1 -7 -9 -4 -12 4 -16 0
-16 -16 0 -15 -5 -20 -14 -17 -9 4 -12 0 -9 -12 2 -9 -10 -57 -27 -107 -17
-49 -33 -94 -34 -100 -1 -7 -7 -19 -14 -27 -7 -8 -10 -21 -6 -30 3 -8 1 -18
-5 -22 -18 -11 -12 -47 8 -52 11 -3 22 -11 25 -19 3 -8 14 -14 25 -14 10 0 22
-7 25 -16 3 -9 12 -14 20 -11 24 9 28 -6 5 -19 -30 -15 -52 -8 -73 24 -11 18
-15 20 -11 7 4 -11 8 -24 9 -30 8 -28 19 -44 37 -48 10 -3 19 -1 19 5 0 5 5 6
10 3 6 -3 10 0 10 8 0 8 6 17 14 20 10 4 13 16 11 34 -2 15 -4 38 -4 51 -1 12
-6 22 -12 22 -6 0 -9 -6 -6 -13 7 -18 -52 -9 -73 11 -13 14 -13 15 8 10 17 -5
33 4 69 38 50 46 62 45 64 -11 l1 -30 8 30 c4 17 8 57 9 90 1 51 3 57 15 45
20 -22 29 -80 12 -80 -8 0 -17 -16 -21 -37 -4 -21 -10 -42 -15 -48 -4 -5 -10
-19 -12 -30 -3 -12 -8 2 -13 33 -4 28 -12 52 -17 52 -6 0 -8 -12 -4 -27 4 -16
9 -62 12 -104 5 -66 3 -78 -15 -100 -20 -24 -20 -24 -21 -2 0 12 6 24 13 26 7
3 5 6 -5 6 -24 1 -61 -37 -54 -56 14 -37 18 -63 8 -63 -13 0 -22 13 -27 42 -3
12 -10 26 -16 32 -17 16 -4 -33 27 -100 29 -63 27 -82 -3 -32 -21 35 -36 74
-49 123 l-8 30 -6 -40 c-4 -27 0 -53 13 -83 10 -23 15 -47 12 -52 -3 -6 -1
-10 4 -10 14 0 15 -137 1 -145 -9 -5 -15 15 -11 38 1 4 -6 22 -15 39 -13 25
-13 30 -2 25 10 -3 14 1 12 16 -1 12 -3 22 -4 22 -1 0 -3 10 -6 23 -4 21 -34
63 -34 48 0 -4 -16 10 -35 30 -19 19 -35 37 -35 39 0 2 16 -3 36 -11 45 -19
58 -8 39 30 -10 20 -12 33 -5 46 11 20 4 50 -12 50 -5 0 -7 3 -5 8 3 4 1 16
-4 27 -7 17 -8 18 -10 3 -1 -10 -3 -22 -4 -28 -1 -5 -3 -17 -4 -25 -1 -16 -31
-21 -31 -5 0 6 4 10 9 10 13 0 20 49 7 53 -7 3 -6 11 5 23 8 10 15 26 14 34
-1 8 3 23 7 33 5 9 5 17 0 17 -5 0 -21 -22 -36 -50 -15 -27 -24 -50 -21 -50
12 0 -38 -66 -78 -102 -31 -28 -38 -40 -30 -50 6 -7 9 -23 7 -36 -2 -13 0 -21
5 -17 5 3 12 1 16 -5 3 -6 0 -13 -9 -16 -9 -3 -14 -18 -14 -35 1 -18 4 -25 9
-18 4 7 6 17 5 23 -2 6 -1 8 1 3 3 -4 9 -5 13 -2 5 3 2 -8 -6 -25 -9 -16 -12
-35 -8 -42 4 -7 9 -25 11 -40 2 -16 9 -41 16 -56 8 -15 20 -84 27 -154 10
-103 10 -133 0 -158 -15 -36 -37 -35 -31 1 4 21 4 54 1 131 -1 10 -6 21 -12
24 -7 5 -8 2 -3 -7 5 -8 5 -11 0 -7 -4 4 -8 27 -8 50 0 30 -6 50 -20 66 -11
12 -15 22 -9 22 15 0 7 38 -21 97 -20 44 -38 50 -31 10 2 -12 2 -16 -2 -9 -12
26 -19 10 -19 -47 0 -33 4 -63 8 -67 11 -12 8 -26 -5 -18 -8 5 -9 2 -5 -10 4
-10 7 -20 7 -22 0 -2 8 -4 18 -4 14 0 15 -2 2 -10 -9 -6 -10 -10 -3 -10 18 0
26 -39 11 -57 -9 -12 -10 -15 0 -9 7 4 15 0 19 -10 4 -10 2 -19 -5 -22 -16 -5
-15 -31 1 -62 14 -27 12 -54 -4 -44 -5 3 -9 0 -9 -5 0 -6 9 -11 20 -11 24 0
27 -15 4 -24 -14 -5 -14 -8 0 -28 13 -19 14 -24 2 -37 -9 -10 -16 -47 -19 -96
-4 -89 -10 -120 -28 -141 -26 -32 2 -141 86 -329 64 -144 69 -153 84 -148 13
4 13 3 3 -5 -11 -8 -10 -17 9 -53 12 -24 23 -55 24 -69 1 -14 10 -63 19 -110
9 -47 22 -122 28 -168 l10 -84 -47 -146 c-78 -242 -92 -256 -247 -264 -39 -3
-48 -7 -48 -21 0 -10 -4 -15 -10 -12 -5 3 -10 15 -10 25 0 14 -6 18 -22 15
-12 -3 -30 3 -40 11 -9 9 -24 14 -33 10 -10 -3 -18 1 -22 12 -3 9 -15 30 -27
46 -11 16 -15 27 -9 23 13 -8 25 17 17 38 -5 11 -2 13 10 9 12 -4 16 0 16 15
0 12 -4 21 -9 21 -5 0 -11 8 -15 18 -3 9 -8 22 -11 28 -3 6 6 23 20 38 20 22
23 31 14 42 -17 20 -32 17 -26 -5 4 -17 0 -19 -29 -17 -54 5 -112 59 -119 111
-1 6 -5 23 -10 39 -5 19 -4 31 5 36 8 5 10 15 5 26 -5 13 -9 15 -12 7 -11 -30
-20 -10 -10 22 6 19 14 35 18 35 5 0 6 -7 2 -16 -4 -11 -1 -15 13 -12 11 2 18
-2 17 -9 -15 -76 -15 -93 1 -99 9 -3 13 -10 10 -15 -3 -5 2 -6 11 -3 10 4 24
-4 39 -21 15 -17 25 -23 28 -15 3 9 13 10 41 2 38 -11 43 -6 38 36 -1 6 2 12
7 12 16 0 22 -13 11 -26 -6 -7 -8 -17 -5 -23 9 -15 58 -5 68 13 5 10 22 22 36
28 15 6 22 12 15 15 -7 2 -9 11 -6 20 4 10 2 14 -4 10 -6 -4 -13 3 -16 15 -4
15 0 26 16 37 12 9 25 15 29 14 3 -1 8 4 11 11 4 10 -1 13 -16 10 -12 -2 -16
-2 -9 2 6 3 12 12 12 19 0 18 50 71 63 67 6 -2 5 4 -2 12 -8 10 -11 27 -7 43
4 18 3 23 -2 14 -11 -16 -17 -7 -27 36 -3 18 -11 33 -16 33 -5 0 -9 7 -9 15 0
8 -6 15 -12 15 -22 -1 -44 -23 -66 -66 -11 -22 -28 -46 -36 -53 -14 -12 -16
-9 -16 23 0 20 -5 36 -11 36 -5 0 -8 -4 -5 -8 2 -4 1 -14 -5 -22 -6 -11 -9 -7
-10 15 0 17 -3 25 -5 18 -3 -7 -12 -9 -20 -6 -9 3 -14 -2 -14 -17 0 -11 -4
-18 -10 -15 -5 3 -7 0 -4 -9 7 -18 -14 -59 -27 -51 -5 4 -9 1 -9 -5 0 -6 -5
-8 -11 -4 -8 4 -4 13 12 26 13 10 17 16 8 13 -11 -4 -18 1 -23 17 -9 34 -8 35
19 33 14 -2 23 1 19 6 -3 5 -14 9 -24 9 -26 0 -34 17 -11 25 17 5 18 10 8 41
-10 32 -14 35 -39 30 -15 -3 -30 0 -34 6 -5 8 -10 5 -15 -8 -7 -17 -8 -17 -8
-1 -1 12 -5 15 -13 11 -23 -15 -46 -11 -41 5 4 11 1 10 -9 -3 -15 -19 -16 -19
-22 2 -4 12 -12 22 -17 22 -5 0 -9 6 -9 14 0 8 -6 16 -14 19 -9 4 -12 15 -8
33 3 17 1 25 -6 20 -6 -3 -12 0 -14 6 -3 8 -9 4 -17 -10 -6 -12 -18 -22 -26
-22 -7 0 -16 -4 -20 -9 -3 -6 10 -8 32 -6 35 4 36 4 7 -4 -17 -4 -37 -11 -44
-16 -9 -5 -11 -4 -6 3 10 16 -17 15 -32 0 -10 -10 -7 -15 10 -26 19 -11 19
-12 3 -7 -11 4 -24 8 -30 9 -5 1 -15 5 -21 9 -7 4 -17 1 -23 -7 -8 -10 -8 -15
-1 -18 5 -1 1 -9 -11 -16 -12 -8 -18 -9 -14 -3 4 7 -4 11 -22 11 -15 0 -34 4
-42 9 -19 12 -49 2 -54 -18 -4 -13 -6 -12 -12 6 -4 12 -14 24 -22 27 -11 4
-13 1 -8 -14 4 -11 2 -20 -4 -20 -6 0 -11 4 -11 9 0 10 -45 8 -73 -4 -9 -4
-28 -4 -41 -1 -26 6 -126 -20 -126 -33 0 -5 -8 -11 -17 -15 -10 -3 -23 -8 -29
-11 -6 -3 -23 7 -38 22 l-28 28 3 -25 c4 -22 1 -25 -24 -22 -24 2 -30 -3 -47
-43 -11 -26 -20 -55 -20 -66 0 -10 -4 -19 -8 -19 -14 0 -7 -95 9 -118 9 -12
18 -19 21 -16 4 3 9 -8 13 -25 4 -17 10 -29 15 -26 17 10 28 -22 26 -76 -2
-48 -7 -62 -34 -93 -18 -20 -32 -39 -32 -42 0 -10 36 2 54 19 13 11 27 15 40
11 19 -6 20 -5 6 11 -14 17 -14 17 8 6 20 -11 26 -8 23 12 0 4 4 7 9 7 17 0 7
-33 -15 -53 -15 -14 -16 -17 -4 -14 13 4 16 -1 15 -19 0 -13 -4 -24 -9 -24 -4
0 -6 -6 -5 -12 2 -8 -5 -12 -17 -10 -12 2 -16 0 -9 -5 12 -9 26 -54 15 -50 -7
2 -11 -7 -11 -24 0 -6 6 -9 14 -6 10 4 16 -5 21 -29 3 -19 15 -43 26 -52 19
-17 27 -38 10 -27 -5 3 -13 0 -17 -7 -4 -7 -4 -10 1 -6 4 4 14 3 21 -3 8 -6
21 -8 30 -5 14 5 14 8 -1 23 -11 10 -15 27 -13 44 3 16 0 30 -6 33 -7 2 -5 15
7 36 9 17 17 48 18 68 0 35 1 36 10 12 6 -14 8 -33 5 -42 -2 -10 0 -16 5 -12
5 3 9 -3 9 -13 0 -10 7 -28 15 -41 11 -14 14 -35 11 -62 -6 -48 -12 -60 -32
-60 -8 0 -14 -4 -14 -9 0 -5 -8 -12 -17 -14 -10 -3 1 -5 25 -4 23 0 42 6 42
11 1 22 29 47 56 52 16 3 33 9 39 15 5 5 19 9 32 9 13 0 23 3 23 8 0 4 10 8
23 8 45 2 96 13 132 28 44 19 56 20 35 5 -12 -9 -12 -10 3 -5 10 3 24 6 30 6
16 0 37 46 26 57 -5 5 -5 19 -2 33 6 23 7 23 18 -10 6 -19 23 -41 36 -47 13
-7 23 -17 22 -22 -1 -4 9 -6 23 -3 13 2 31 -1 39 -8 7 -6 24 -10 37 -9 13 2
29 0 36 -5 7 -4 19 -3 26 3 17 14 31 -1 40 -44 6 -28 5 -29 -9 -11 -8 11 -15
23 -15 27 0 4 -48 7 -106 7 -65 0 -110 4 -117 11 -6 6 -18 11 -27 11 -13 0
-13 -2 -1 -9 18 -12 -7 -19 -84 -25 -120 -10 -177 -26 -125 -36 19 -3 41 -2
48 3 8 6 12 5 12 -2 0 -14 39 -8 49 8 5 7 15 9 27 4 10 -4 32 -6 49 -5 56 3
104 10 113 16 15 9 72 -15 72 -30 0 -27 20 -14 21 14 l1 27 10 -27 c7 -21 15
-27 31 -24 12 2 21 10 19 17 -2 10 0 10 13 -1 12 -10 19 -10 27 -2 7 7 22 12
34 12 26 0 40 16 22 23 -7 3 -3 6 10 6 12 1 22 -3 22 -9 0 -5 7 -7 15 -4 9 4
15 0 16 -7 0 -8 4 -5 9 6 9 19 9 19 16 -2 3 -13 13 -23 21 -23 9 0 13 -6 9
-15 -6 -17 29 -22 39 -5 12 19 25 10 19 -14 l-6 -24 216 0 215 -1 -9 25 c-7
17 -6 24 3 24 7 0 8 3 2 8 -34 25 -41 92 -7 73 8 -5 17 -16 18 -25 1 -9 -2
-14 -7 -10 -5 3 -9 -2 -9 -11 0 -9 5 -13 11 -9 8 4 9 -3 4 -25 -4 -17 -3 -31
2 -30 20 3 34 -2 28 -11 -3 -5 -2 -10 2 -10 5 0 16 12 25 28 10 15 18 22 18
15 0 -6 -4 -15 -10 -18 -22 -14 -8 -23 35 -23 35 0 45 3 45 16 1 15 2 15 11 0
8 -14 24 -18 74 -18 60 0 65 2 71 24 3 13 1 40 -4 60 -6 20 -7 36 -4 36 4 0 8
29 9 64 1 34 9 88 18 118 8 30 13 62 10 70 -4 9 -2 33 4 54 6 22 13 66 16 99
3 33 10 80 16 104 6 27 6 48 1 53 -6 6 -7 19 -4 30 4 15 7 17 14 6 5 -8 6 5 2
33 -4 29 -1 55 6 69 14 25 21 241 8 234 -5 -3 -8 0 -8 5 0 6 4 11 9 11 13 0
32 84 21 88 -6 2 -10 8 -10 13 0 6 4 8 9 4 6 -3 9 6 8 19 -1 14 3 26 8 28 12
4 14 -85 3 -130 -11 -40 1 -66 15 -31 6 13 11 69 13 125 1 56 7 125 13 155 12
62 11 151 -3 161 -5 3 -10 21 -11 40 -4 133 -10 141 -19 28 -10 -124 -17 -174
-28 -190 -8 -12 -9 -12 -4 3 3 10 0 17 -9 17 -16 0 -27 30 -25 68 1 15 1 54 0
87 l-3 60 -7 -45 c-4 -25 -6 -48 -3 -52 2 -4 -7 -10 -19 -13 -16 -4 -24 -14
-26 -31 -1 -13 -11 -38 -23 -53 -15 -21 -20 -39 -17 -65 2 -20 1 -37 -3 -38
-7 -3 -12 -29 -25 -131 -5 -32 -10 -44 -15 -35 -6 9 -9 9 -9 1 0 -6 5 -15 10
-18 6 -3 10 -23 10 -44 0 -33 3 -37 23 -37 12 1 25 6 29 11 4 6 8 -7 8 -27 0
-36 -13 -57 -24 -39 -4 5 -1 11 5 13 5 2 7 11 3 21 -9 25 -29 15 -27 -14 1
-15 0 -17 -3 -6 -3 9 -10 17 -16 17 -6 0 -7 -8 -3 -18 4 -9 9 -69 11 -132 3
-75 9 -117 17 -122 9 -6 9 -8 -2 -8 -10 0 -11 -3 -2 -14 9 -10 8 -15 -4 -20
-12 -4 -15 2 -15 29 0 19 -3 35 -7 35 -5 0 -7 -21 -6 -47 0 -27 -1 -52 -4 -57
-9 -14 -22 17 -14 33 11 20 5 115 -8 139 -12 22 -11 63 1 56 4 -3 8 3 8 13 0
11 6 25 13 32 10 11 10 13 0 7 -7 -4 -13 -2 -13 3 0 6 -4 11 -10 11 -5 0 -7
-7 -3 -16 8 -20 -17 -36 -34 -22 -18 14 -17 -6 0 -24 8 -7 12 -19 9 -26 -2 -8
-9 -3 -18 13 -17 32 -9 76 12 68 15 -6 20 12 5 21 -5 4 -9 23 -8 44 1 20 -2
43 -6 49 -4 6 -2 15 3 18 7 5 5 11 -6 19 -13 10 -15 19 -9 42 5 16 10 38 11
49 2 11 7 41 12 67 7 39 6 48 -5 48 -10 0 -12 6 -7 22 3 12 7 34 8 49 2 34 16
51 16 19 0 -19 2 -22 13 -11 10 10 7 16 -11 31 -13 11 -21 24 -17 30 26 43 21
181 -6 164 -7 -4 -6 15 6 111 9 74 12 236 4 240 -3 3 -4 16 -2 30 3 13 9 22
14 19 5 -3 28 -46 53 -97 24 -51 63 -115 85 -144 38 -47 166 -143 191 -143 6
0 22 -7 36 -16 14 -9 44 -21 67 -26 81 -18 177 -32 183 -25 3 3 -3 47 -15 97
-21 93 -20 108 12 148 8 11 12 11 18 0 7 -10 9 -9 9 5 0 9 5 17 10 17 6 0 10
5 10 11 0 8 -5 8 -15 -1 -20 -17 -19 -7 5 43 11 23 26 70 32 106 11 61 11 64
-10 81 -27 22 -28 51 -4 73 23 21 41 21 69 2 16 -11 22 -12 25 -3 3 7 29 -10
62 -42 53 -50 63 -55 115 -60 l56 -5 29 -118 c15 -64 26 -124 23 -131 -3 -8
-78 -65 -166 -128 l-160 -113 102 -7 c72 -4 131 -15 202 -37 118 -38 234 -49
318 -32 31 7 57 16 57 20 0 4 11 13 24 19 97 44 89 201 -19 418 -62 124 -97
169 -234 298 -51 48 -112 109 -135 135 -51 59 -120 114 -125 100 -1 -6 4 -18
13 -28 9 -10 16 -22 16 -28 0 -5 11 -16 25 -23 13 -7 31 -28 40 -46 19 -40 34
-51 46 -33 7 9 7 5 3 -13 -6 -27 10 -41 18 -16 8 22 28 -3 29 -35 0 -18 3 -26
6 -19 2 6 9 10 13 7 5 -3 7 -12 4 -19 -6 -16 49 -59 60 -48 4 4 6 3 5 -3 -2
-5 17 -31 43 -56 44 -44 66 -84 54 -96 -3 -4 -6 -1 -6 6 0 13 -24 41 -35 41
-4 0 2 -15 14 -33 20 -32 22 -59 7 -74 -5 -4 -6 4 -2 19 5 21 2 30 -13 37 -10
6 -22 7 -26 3 -5 -4 -6 0 -2 10 6 18 -25 53 -37 41 -4 -4 -4 0 0 10 3 9 10 17
15 17 5 0 9 7 9 15 0 23 -17 18 -24 -7 -6 -23 -7 -23 -31 7 -14 17 -28 40 -31
53 -4 12 -10 22 -14 22 -21 0 -202 211 -206 241 -3 22 -5 23 -15 9 -8 -12 -9
-11 -5 6 6 21 -37 73 -65 78 -17 3 -99 84 -99 98 0 5 -5 6 -12 2 -7 -5 -9 -1
-6 12 4 17 0 20 -23 18 -16 -1 -29 2 -29 7 0 5 -7 9 -16 9 -8 0 -12 5 -9 10 4
7 -3 9 -18 6 -29 -5 -41 2 -45 28 -3 16 -1 18 10 9 7 -6 18 -12 23 -14 38 -9
45 -12 45 -21 0 -6 7 -8 15 -5 8 4 17 2 20 -3 4 -6 14 -10 23 -10 13 0 12 5
-8 20 -14 11 -30 20 -36 20 -7 0 -15 7 -18 16 -4 9 -9 14 -13 11 -3 -4 -12 -2
-19 4 -8 6 -20 9 -29 6 -8 -4 -17 -2 -20 3 -3 5 -18 9 -33 10 -15 0 -49 2 -77
3 -47 2 -50 3 -51 29 -1 15 3 25 7 22 5 -3 9 0 9 5 0 6 5 11 11 11 5 0 8 -4 4
-9 -3 -6 3 -9 14 -8 21 1 17 27 -5 27 -8 0 -14 4 -14 9 0 5 10 7 23 5 20 -4
20 -4 2 5 -12 5 -27 5 -39 -1 -12 -7 -22 -6 -30 2 -8 8 -7 10 7 5 22 -9 22 8
0 26 -14 12 -16 12 -8 0 6 -11 3 -13 -13 -9 -12 4 -22 2 -22 -4 0 -5 -4 -7
-10 -3 -5 3 -7 12 -3 20 3 10 -1 15 -15 15 -11 0 -22 -4 -24 -10 -1 -5 -15
-11 -31 -12 -16 -1 -29 -10 -33 -20 -6 -21 -20 -23 -30 -6 -4 6 -3 8 3 5 6 -4
13 2 16 13 3 11 2 18 -2 16 -13 -8 -34 11 -26 24 6 9 10 9 17 -1 6 -11 8 -9 6
6 -2 14 3 21 20 23 12 2 22 8 22 14 0 7 -15 9 -39 5 -30 -4 -42 0 -55 14 -15
18 -13 23 7 20 4 0 7 4 7 10 0 5 5 7 10 4 6 -3 10 0 10 9 0 8 3 23 6 33 5 15
4 15 -5 3 -9 -13 -11 -13 -11 1 0 9 -8 23 -17 30 -15 13 -16 11 -10 -17 4 -21
1 -39 -11 -55 l-16 -23 -7 24 c-3 14 -1 31 5 39 8 11 8 13 -1 7 -12 -6 -18 5
-14 27 0 4 -4 7 -10 7 -5 0 -7 5 -4 10 3 6 -1 10 -9 10 -9 0 -16 8 -16 19 0
11 -4 22 -10 26 -5 3 -7 12 -4 19 3 8 1 17 -5 21 -7 4 -8 0 -5 -10z"/>
<path d="M4060 3155 c0 -25 -2 -26 -17 -14 -10 7 -15 9 -11 5 4 -5 2 -16 -5
-24 -9 -13 -9 -14 1 -8 6 4 12 3 12 -1 0 -5 -10 -14 -21 -22 -20 -12 -21 -11
-16 8 3 12 0 24 -5 28 -14 8 -40 -27 -33 -45 2 -7 -5 -17 -18 -22 -12 -5 -16
-9 -9 -9 6 -1 12 -6 12 -12 0 -5 -3 -8 -7 -6 -5 3 -9 -22 -9 -54 -1 -32 2 -59
7 -59 5 0 2 -15 -6 -32 -14 -29 -14 -31 0 -14 21 28 19 7 -4 -31 -17 -27 -18
-34 -6 -50 19 -24 18 -31 -5 -38 -29 -9 -24 -23 6 -17 24 4 25 3 15 -16 -14
-26 -14 -55 -1 -47 6 3 10 2 10 -4 0 -5 -7 -12 -15 -14 -11 -4 -10 -4 2 -3 17
1 19 7 22 74 1 12 4 21 9 21 21 -4 24 3 6 15 -15 12 -17 17 -7 27 10 10 16 9
28 -7 15 -18 16 -18 9 6 -4 14 -10 27 -15 30 -12 8 3 26 29 32 15 4 22 2 22
-9 0 -8 -5 -11 -11 -8 -7 5 -10 -3 -8 -21 4 -49 -1 -74 -12 -72 -6 2 -14 -3
-17 -11 -2 -8 0 -11 6 -7 5 3 12 -1 16 -9 3 -8 1 -17 -4 -20 -6 -4 -10 -15
-10 -26 0 -10 -5 -19 -12 -19 -6 0 -8 -3 -5 -7 4 -3 2 -12 -4 -20 -7 -8 -8
-13 -1 -13 5 0 15 14 22 30 7 17 15 30 19 30 4 0 8 12 9 27 1 15 9 37 17 49
17 27 19 71 5 109 -8 22 -8 26 3 22 8 -3 14 1 14 7 0 8 -10 12 -24 10 -15 -1
-35 8 -53 26 -29 29 -32 50 -11 87 8 16 11 14 23 -11 10 -23 10 -30 0 -34 -29
-9 -3 -53 28 -45 15 4 16 8 7 18 -7 7 -15 11 -19 8 -5 -2 -4 7 1 20 6 14 7 28
4 31 -4 3 -1 6 5 6 7 0 12 -8 13 -17 0 -15 2 -15 8 2 9 23 3 57 -9 50 -5 -3
-11 1 -13 7 -4 10 -6 10 -6 0 -1 -10 -6 -10 -23 -1 -20 11 -20 13 -5 24 14 10
25 9 57 -7 22 -11 40 -27 40 -35 0 -8 5 -11 13 -7 10 6 10 4 0 -7 -18 -19 -16
-35 5 -36 14 -1 19 7 20 33 2 28 -1 34 -17 34 -11 0 -23 5 -26 10 -3 6 -1 10
4 10 6 0 11 7 11 15 0 20 -10 19 -27 -2 -14 -17 -14 -17 -9 0 3 10 6 23 6 28
0 6 5 7 12 3 8 -5 9 -2 3 12 -4 10 -8 27 -9 36 -4 30 -16 33 -16 3z"/>
<path d="M3079 2885 c-1 -8 -2 -21 -3 -27 -1 -7 2 -21 7 -32 6 -12 5 -22 -3
-30 -6 -6 -10 -6 -9 -1 6 20 -13 56 -26 51 -8 -3 -17 3 -20 15 -4 10 -14 19
-22 19 -9 0 -13 -3 -10 -7 4 -3 1 -13 -6 -21 -9 -13 -9 -14 1 -8 9 5 12 -4 12
-33 0 -26 5 -41 13 -41 9 0 9 -2 1 -8 -7 -4 -14 -18 -15 -31 -2 -14 -11 -26
-19 -28 -12 -4 -13 -3 -1 5 8 6 10 15 6 23 -6 9 -10 8 -15 -7 -4 -10 -3 -25 3
-32 7 -9 6 -16 -2 -25 -10 -9 -11 -8 -5 7 5 13 4 17 -3 13 -6 -4 -13 -1 -16 5
-2 7 -3 -9 -1 -36 3 -37 1 -47 -7 -39 -7 7 -12 34 -12 62 0 28 -4 51 -8 51 -5
0 -9 -6 -9 -12 0 -9 -3 -8 -9 2 -6 8 -7 18 -5 22 3 5 2 8 -3 7 -4 -1 -10 0
-13 1 -19 7 -40 7 -40 -1 0 -5 -5 -9 -11 -9 -6 0 -9 6 -6 13 2 6 10 12 18 12
8 0 16 5 17 10 2 6 8 18 13 28 20 36 -8 15 -49 -38 -24 -30 -47 -55 -52 -55
-5 0 -8 -8 -7 -19 1 -13 7 -17 22 -13 18 5 17 2 -8 -31 -15 -20 -23 -37 -18
-37 6 0 8 -7 5 -15 -4 -8 -1 -15 6 -15 7 0 10 8 7 20 -3 11 -1 23 4 26 5 3 9
-1 9 -8 0 -10 2 -10 9 1 5 8 11 9 15 3 3 -6 2 -13 -3 -17 -12 -7 -3 -35 11
-35 6 0 8 6 5 13 -2 6 2 19 11 26 14 13 15 11 9 -19 -4 -20 -3 -38 5 -47 9
-11 6 -20 -11 -43 -16 -22 -18 -30 -7 -30 7 0 17 8 21 18 7 16 8 15 15 -3 10
-26 2 -38 -19 -30 -13 5 -14 4 -3 -6 6 -7 12 -22 12 -33 0 -18 -3 -17 -20 9
-11 17 -20 28 -21 25 -3 -21 -8 -41 -14 -60 -5 -15 -4 -20 4 -16 6 4 11 13 11
21 0 8 4 16 9 19 13 8 6 -40 -7 -57 -9 -10 -8 -17 1 -26 9 -9 9 -14 -3 -21
-19 -12 -32 -2 -25 20 3 10 1 21 -5 25 -12 7 -12 -30 -1 -59 5 -14 10 -16 15
-8 13 22 37 -14 30 -44 -5 -19 -4 -25 5 -20 6 4 11 12 11 17 0 15 26 39 34 32
3 -4 6 2 6 11 0 12 5 16 16 12 10 -4 13 -2 8 7 -5 8 -4 9 4 2 6 -5 13 -26 15
-45 4 -31 5 -30 4 7 -1 23 2 45 6 49 4 4 7 -5 7 -19 0 -20 4 -25 16 -20 12 4
11 -3 -6 -33 -21 -37 -21 -38 -4 -51 12 -9 20 -10 22 -3 5 13 52 13 52 -1 0
-6 9 -22 20 -36 11 -14 20 -21 20 -16 0 6 -7 16 -15 23 -13 11 -13 15 -3 21
11 7 11 9 0 9 -7 0 -10 5 -7 10 3 6 1 10 -4 10 -15 0 -14 19 3 36 16 16 30 19
21 5 -3 -5 8 -16 25 -25 l30 -15 -25 42 c-25 42 -54 65 -42 33 4 -9 3 -15 -2
-11 -17 10 -53 94 -46 106 5 7 1 9 -13 5 -25 -8 -36 16 -17 41 12 15 14 16 15
2 0 -9 9 -24 20 -34 11 -10 20 -28 20 -41 0 -12 3 -29 6 -38 9 -23 40 -3 46
29 5 26 -6 35 -15 13 -4 -10 -6 -10 -6 0 -1 8 -11 28 -23 45 -12 17 -16 27 -9
23 8 -5 17 -3 22 5 7 11 9 10 9 -3 0 -10 5 -18 11 -18 6 0 8 7 5 16 -5 13 -4
14 7 6 10 -9 17 -8 26 1 10 9 11 8 5 -7 -5 -13 -4 -17 4 -12 17 10 15 36 -2
36 -8 0 -33 21 -55 48 -23 26 -41 40 -41 32 0 -13 -1 -13 -10 0 -5 8 -10 21
-10 29 0 11 6 9 23 -6 21 -20 62 -29 51 -11 -8 13 4 10 31 -8 24 -16 25 -16
22 5 -2 11 -7 24 -12 28 -4 5 -5 2 -1 -4 4 -7 3 -13 -3 -13 -12 0 -41 28 -41
41 0 6 -8 9 -17 7 -13 -2 -17 6 -19 35 -2 22 1 35 7 32 5 -4 9 -13 9 -21 0
-15 12 -19 23 -7 4 3 -2 16 -13 28 -12 12 -20 26 -19 31 1 5 1 16 -1 24 -1 11
-4 9 -10 -5 -8 -18 -9 -18 -9 5 -1 55 16 52 35 -6 10 -32 25 -60 33 -62 10 -4
12 0 7 14 -5 11 -10 37 -13 59 -4 32 -2 37 7 25 9 -12 11 -9 6 18 -3 18 -1 32
4 32 14 0 12 16 -3 32 -8 7 -12 26 -10 41 2 15 1 27 -2 27 -3 0 -6 -7 -6 -15z"/>
<path d="M5142 1900 c-12 -10 -27 -20 -34 -22 -7 -3 -9 -14 -4 -32 5 -22 10
-26 21 -16 7 6 17 26 21 43 6 31 7 31 15 9 6 -15 5 -31 -2 -44 -11 -20 -8 -46
12 -120 13 -50 45 -53 54 -5 7 35 45 71 45 42 0 -8 4 -15 9 -15 11 0 7 48 -7
83 -7 15 -15 39 -18 53 -10 41 -24 8 -25 -61 0 -44 -3 -54 -9 -35 -4 14 -17
44 -30 68 -12 23 -20 49 -16 57 7 20 -4 18 -32 -5z"/>
<path d="M5059 1833 c0 -10 -3 -13 -6 -6 -7 20 -43 -8 -43 -34 0 -22 15 -39
23 -26 2 5 1 1 -1 -7 -8 -22 -7 -59 1 -105 5 -30 4 -34 -3 -17 -7 16 -17 22
-32 20 -17 -2 -23 2 -23 17 0 14 6 19 18 17 24 -4 22 19 -3 25 -11 3 -20 13
-19 22 0 10 2 11 6 3 2 -6 9 -10 14 -6 11 6 12 64 1 64 -10 0 -42 -37 -36 -43
3 -2 7 -42 10 -88 7 -131 6 -126 34 -125 19 1 28 9 37 36 7 19 12 29 12 23 1
-19 38 -16 45 3 3 9 6 28 7 42 l0 27 11 -23 c26 -53 60 7 43 75 -5 21 -10 24
-30 19 -20 -5 -25 -3 -25 12 0 26 11 34 27 21 10 -9 13 -8 13 5 0 22 -30 33
-41 15 -5 -8 -9 -30 -9 -49 -1 -31 -2 -33 -12 -15 -6 11 -15 22 -19 25 -11 8
1 51 12 44 5 -3 9 6 9 20 0 29 -20 36 -21 9z"/>
<path d="M4390 1720 c5 -16 6 -30 2 -30 -4 0 -7 -35 -6 -78 0 -42 -4 -94 -9
-116 -7 -28 -7 -44 2 -58 7 -11 8 -17 3 -14 -12 7 -26 -65 -23 -114 2 -19 4
-51 6 -70 1 -19 6 -44 10 -54 11 -25 43 126 44 204 0 30 3 70 6 89 2 19 1 39
-2 45 -4 5 -8 31 -10 56 -2 25 -5 65 -7 90 -2 25 -5 53 -5 63 -1 9 -5 17 -10
17 -6 0 -6 -12 -1 -30z"/>
<path d="M485 621 c-15 -15 -2 -76 23 -107 34 -43 50 -43 54 -1 3 29 6 32 39
35 32 3 37 7 41 32 3 16 2 34 -1 38 -6 9 -148 12 -156 3z"/>
<path d="M5175 538 c-48 -17 -56 -27 -49 -64 5 -26 2 -34 -14 -43 -29 -15 -57
-14 -72 4 -16 20 -30 19 -60 -4 l-24 -19 24 -20 c14 -11 44 -23 67 -27 55 -8
72 -28 47 -56 -16 -17 -16 -22 -4 -29 28 -18 88 -11 110 12 39 42 25 60 -38
48 -40 -7 -58 2 -28 13 8 3 22 17 31 31 13 20 14 29 5 47 -10 17 -9 23 1 30 8
5 10 9 6 9 -5 0 5 12 23 26 28 24 32 25 48 11 26 -23 56 -25 60 -3 2 10 0 22
-5 26 -15 14 -97 19 -128 8z"/>
<path d="M5538 503 c-14 -2 -32 -11 -38 -19 -7 -8 -19 -14 -27 -14 -7 0 -35
-20 -61 -43 -47 -44 -73 -59 -104 -62 -10 -1 -24 -8 -33 -15 -19 -16 -3 -47
27 -52 28 -4 35 -37 16 -76 -18 -34 -7 -64 40 -109 19 -19 32 -41 32 -57 0
-18 9 -30 30 -41 31 -16 33 -16 300 10 84 8 108 9 206 4 77 -3 95 -1 111 13
27 24 42 23 65 -8 l20 -25 23 21 c32 30 23 61 -15 54 -21 -5 -31 -1 -43 16 -9
12 -13 28 -11 34 7 19 -35 34 -114 41 -64 6 -73 4 -78 -12 -9 -31 -20 -46 -38
-57 -13 -9 -20 -7 -31 8 -8 10 -12 23 -9 27 12 20 -45 38 -131 43 -50 2 -93 5
-97 5 -20 2 -5 23 25 36 24 10 67 12 167 9 220 -7 273 -4 267 16 -4 18 39 70
58 70 39 1 -14 29 -67 36 -53 7 -66 17 -48 39 26 32 -18 63 -48 33 -6 -6 -33
-15 -59 -20 -108 -20 -116 -21 -108 -8 6 9 0 10 -26 4 -73 -19 -171 -8 -218
23 -9 6 25 35 56 48 60 25 40 40 -39 28z"/>
<path d="M6316 396 c-36 -36 -66 -69 -66 -75 0 -5 -13 -18 -30 -28 -30 -17
-40 -49 -21 -68 13 -13 16 -46 6 -68 -4 -9 -5 -29 -2 -44 3 -15 0 -34 -5 -43
-17 -26 17 -70 54 -70 l29 0 -2 103 c-1 57 1 109 6 116 5 9 22 11 61 6 l54 -6
0 120 c0 67 -4 121 -9 121 -5 0 -39 -29 -75 -64z"/>
<path d="M1384 422 c-11 -4 -33 -17 -48 -29 -27 -21 -28 -26 -22 -70 12 -84
12 -88 -4 -85 -25 6 -289 4 -309 -3 -17 -5 -18 -8 -5 -34 9 -19 27 -32 54 -40
22 -6 40 -15 41 -19 0 -4 2 -29 5 -56 5 -72 8 -78 40 -66 28 11 64 5 64 -11 0
-19 27 -8 38 16 13 29 38 32 70 9 18 -12 36 -14 85 -9 34 4 70 11 80 16 20 11
23 37 4 45 -18 6 -151 24 -201 27 -23 1 -41 8 -44 16 -3 10 6 12 44 7 60 -8
147 -8 196 0 35 5 36 7 26 29 -15 33 -4 55 27 55 22 0 25 3 20 20 -4 12 0 31
9 45 9 13 16 27 16 31 0 4 -29 4 -65 1 -35 -3 -67 -2 -70 2 -4 8 42 45 57 46
4 0 12 5 19 12 10 10 8 14 -7 18 -10 4 -31 13 -46 21 -28 15 -41 16 -74 6z"/>
<path d="M533 284 c-9 -4 -9 -13 -2 -30 5 -14 9 -41 9 -60 l0 -34 -125 0 c-99
0 -127 -3 -131 -14 -5 -12 -10 -12 -39 0 -19 8 -54 14 -79 14 -35 0 -45 4 -49
19 -2 11 -1 23 3 28 4 4 10 20 14 36 6 25 4 27 -28 27 -61 0 -68 -6 -50 -48
19 -46 12 -62 -26 -62 l-30 0 0 -80 0 -80 475 0 476 0 -21 22 c-11 12 -20 25
-20 30 0 4 -13 5 -30 2 -16 -4 -41 -3 -56 0 -22 6 -25 11 -19 34 8 35 61 80
103 88 25 5 32 11 32 30 0 33 -18 39 -32 10 -12 -29 -27 -34 -29 -11 -1 8 -2
21 -3 28 -1 7 -17 12 -43 12 -23 1 -45 4 -49 8 -4 4 -13 2 -19 -3 -13 -11 -9
-57 6 -66 16 -10 9 -53 -10 -64 -16 -8 -23 -5 -40 18 -16 23 -25 27 -54 24
-20 -2 -38 1 -42 8 -9 14 -9 71 0 99 6 19 3 21 -37 20 -24 0 -48 -3 -55 -5z"/>
</g>
</svg>
